PathFileType	4	(X/Y/Z)	C:/Users/opensim2020/Desktop/walking_exp_matlab/subject06_walking20_straight_01.trc																																																																																																																															
DataRate	CameraRate	NumFrames	NumMarkers	Units	OrigDataRate	OrigDataStartFrame	OrigNumFrames																																																																																																																											
100	100	6	43	mm	100	828	127																																																																																																																											
Frame#	Time	LFHD			RFHD			LBHD			RBHD			C7			T10			CLAV			STRN			RBAK			LSHO			LUPA			LELB			LFRM			LWRA			LWRB			LFIN			RSHO			RUPA			RELB			RFRM			RWRA			RWRB			RFIN			LASI			RASI			LPSI			RPSI			LTHI			LKNE			LTIB			LANK			LHEE			LTOE			RTHI			RKNE			RTIB			RANK			RHEE			RTOE			*39			*40			*41			*42		
		X1	Y1	Z1	X2	Y2	Z2	X3	Y3	Z3	X4	Y4	Z4	X5	Y5	Z5	X6	Y6	Z6	X7	Y7	Z7	X8	Y8	Z8	X9	Y9	Z9	X10	Y10	Z10	X11	Y11	Z11	X12	Y12	Z12	X13	Y13	Z13	X14	Y14	Z14	X15	Y15	Z15	X16	Y16	Z16	X17	Y17	Z17	X18	Y18	Z18	X19	Y19	Z19	X20	Y20	Z20	X21	Y21	Z21	X22	Y22	Z22	X23	Y23	Z23	X24	Y24	Z24	X25	Y25	Z25	X26	Y26	Z26	X27	Y27	Z27	X28	Y28	Z28	X29	Y29	Z29	X30	Y30	Z30	X31	Y31	Z31	X32	Y32	Z32	X33	Y33	Z33	X34	Y34	Z34	X35	Y35	Z35	X36	Y36	Z36	X37	Y37	Z37	X38	Y38	Z38	X39	Y39	Z39	X40	Y40	Z40	X41	Y41	Z41	X42	Y42	Z42	X43	Y43	Z43
																																																																																																																																		
96	0.95	364.27365	1631.54065	-1049.43518	353.7334	1611.82385	-919.18396	236.43495	1569.30994	-1066.24438	226.54623	1554.43677	-938.08728	239.91945	1410.84106	-1015.79834	214.47267	1080.98267	-1014.16022	351.67859	1335.57275	-1010.41272	395.07944	1161.57971	-1022.94452	167.1981	1235.40076	-946.62024	303.28342	1369.99133	-1173.34521	330.39761	1175.04761	-1255.41382	353.8179	1067.23511	-1276.83179	467.99341	974.43005	-1292.22461	586.85431	946.20935	-1238.5929	556.00244	895.0365	-1276.08643	644.27875	882.45569	-1275.63269	295.5575	1361.75	-850.76685	219.26283	1175.13831	-770.26569	204.1136	1052.95605	-757.16559	186.77177	933.82886	-737.8222	203.20816	779.98853	-765.61212	152.36832	800.39734	-725.87085	162.65724	716.40405	-722.0733	386.26846	920.78595	-1127.26282	408.00742	940.59918	-909.17212	232.54651	946.6062	-1089.96155	250.89395	959.33313	-922.68195	284.34125	603.6795	-1178.68152	261.67514	440.59076	-1161.36182	53.76487	295.59988	-1143.82922	-79.2008	188.18951	-1103.8186	-108.10351	216.27138	-1058.12256	-39.35322	46.61777	-1084.5116	454.09332	632.4668	-845.64539	505.95529	520.00635	-878.4223	520.72064	253.22314	-872.66333	525.2959	67.77272	-916.45233	483.88116	44.63004	-958.07703	676.70703	34.71505	-923.04846	256.94888	1659.48071	-998.25342	386.4491	1535.98804	-1008.00653	NaN	NaN	NaN	NaN	NaN	NaN
97	0.96	378.03796	1633.58301	-1047.44055	367.65814	1613.25708	-917.21716	250.4782	1570.87744	-1064.4812	240.77466	1555.55322	-936.39728	254.24051	1412.4021	-1014.53406	228.66028	1083.00537	-1014.05988	366.27914	1337.30029	-1009.66077	409.57458	1163.25427	-1022.52502	181.83926	1237.29138	-945.66345	317.655	1372.15186	-1172.11096	344.02792	1176.90588	-1253.55396	365.97922	1068.92957	-1274.3905	478.64633	974.12512	-1289.9436	597.08942	943.85211	-1236.77966	565.20044	893.112	-1274.03918	653.03351	878.87561	-1274.01709	310.80008	1363.16125	-849.90222	237.00395	1175.52783	-768.85333	222.93562	1053.38989	-755.96344	207.19235	934.06989	-736.48474	225.27058	781.13519	-764.20868	174.77399	800.16144	-724.34821	186.1443	716.185	-720.92969	401.47238	922.00916	-1125.9812	421.30557	943.59357	-907.58435	247.26033	947.75653	-1090.44446	264.20871	961.1347	-923.03082	305.58435	603.37512	-1177.37476	287.04214	440.06641	-1160.37708	77.69642	300.37402	-1143.88977	-58.1061	197.16539	-1104.74695	-83.88742	227.59369	-1058.97498	-30.54135	52.00994	-1085.06274	466.46466	633.01678	-845.18829	517.41785	520.34546	-878.76141	527.82306	253.27415	-874.09583	525.95233	68.13322	-917.07935	484.03427	44.83137	-958.47058	677.33459	34.10459	-923.65051	270.5499	1660.76086	-996.14301	398.91348	1537.58289	-1008.68536	NaN	NaN	NaN	NaN	NaN	NaN
98	0.97	392.02356	1636.35864	-1045.44946	381.56433	1614.99634	-915.31616	264.45975	1573.04358	-1062.802	254.79071	1556.84009	-934.83295	268.55902	1414.66113	-1013.46802	242.59077	1085.42566	-1013.72443	380.61487	1339.48572	-1009.03009	423.69525	1165.31628	-1022.22192	196.3298	1239.50659	-945.05536	331.84991	1374.53125	-1171.22766	357.56006	1178.93396	-1251.75879	377.5687	1070.60986	-1272.03003	488.73535	973.64661	-1287.92358	606.61383	941.01105	-1235.25745	573.61908	890.84198	-1272.23059	661.12793	874.69214	-1272.39697	325.90839	1364.87061	-849.11145	254.76392	1176.27673	-767.48584	241.74803	1054.07312	-754.70544	227.91666	934.56555	-735.19952	249.06117	782.54114	-762.37408	197.59618	800.17499	-722.96521	210.31325	716.45978	-719.84125	415.81775	923.82623	-1124.60779	434.14868	946.40143	-906.03796	261.47113	949.42651	-1090.3335	277.57251	962.97754	-922.88617	326.79504	603.61145	-1175.70398	312.92871	440.21307	-1158.84192	103.01781	304.06552	-1143.74365	-35.81246	205.36378	-1105.63086	-59.00246	237.37572	-1059.66565	-17.46094	58.67708	-1087.20142	477.32443	632.38721	-845.46075	528.14996	520.24414	-879.30377	532.97357	253.00128	-875.20868	526.46399	68.37785	-917.49182	484.01755	44.97412	-958.58545	677.62152	33.76646	-924.26221	284.25375	1662.61914	-993.98248	NaN	NaN	NaN	NaN	NaN	NaN	NaN	NaN	NaN
99	0.98	405.83963	1639.35095	-1043.48022	395.51004	1617.06018	-913.57104	278.51459	1575.80054	-1061.34119	268.82764	1558.7417	-933.45154	282.86411	1417.40027	-1012.59564	256.26849	1088.2522	-1013.43719	394.70279	1341.98462	-1008.50781	437.5191	1167.70081	-1021.83429	210.41556	1242.38855	-944.26099	345.86603	1377.08057	-1170.55688	370.74338	1181.03479	-1250.1864	388.85263	1072.27966	-1269.93225	497.64902	972.76794	-1285.63525	615.5708	937.70514	-1233.92358	581.19519	888.19873	-1270.64233	668.33124	869.89246	-1270.85059	340.83261	1366.90503	-848.34265	272.59598	1177.30823	-766.01385	260.43369	1055.20483	-753.26764	248.68092	935.36578	-734.00928	272.1738	783.80359	-761.66162	220.80081	800.54279	-721.71075	235.25302	717.07465	-718.87299	430.29156	926.27679	-1124.15625	446.76086	948.87683	-904.57581	275.31778	951.53394	-1089.85449	290.77695	965.07263	-922.33917	347.92078	604.41174	-1173.88672	338.86096	441.07919	-1156.97412	129.55902	306.52664	-1143.43982	-13.40246	213.09155	-1105.80725	-35.74042	244.94791	-1059.26904	1.89116	65.22043	-1090.38464	487.4227	631.94812	-846.28375	538.05255	519.91205	-880.29285	536.71466	252.85098	-875.5058	526.82263	68.462	-917.61298	483.84244	45.05568	-958.57434	677.67401	33.65926	-924.55853	298.08038	1664.94421	-991.88446	NaN	NaN	NaN	NaN	NaN	NaN	NaN	NaN	NaN
100	0.99	419.82526	1642.42712	-1041.7041	409.47961	1619.31567	-911.9447	292.53665	1578.91809	-1060.02051	282.85645	1561.09521	-932.25964	297.02383	1420.48779	-1011.78333	269.83963	1091.19104	-1013.03308	408.61032	1344.76282	-1007.94507	451.26688	1170.40698	-1021.47144	224.44783	1245.50623	-943.34912	359.7326	1379.91492	-1169.99561	383.44394	1183.4115	-1249.07629	399.79266	1073.93921	-1267.99268	506.25385	971.73975	-1283.89551	623.85876	933.92731	-1232.74048	587.84576	885.2207	-1269.31079	674.6076	864.46545	-1269.37512	355.52774	1369.30237	-847.62976	290.21329	1178.80627	-764.72363	279.08588	1056.52002	-752.03931	269.50763	936.54456	-732.91089	295.6347	785.60565	-761.10846	244.38597	801.20856	-720.75287	260.7446	718.08173	-717.8548	444.07687	929.15961	-1123.60376	459.61057	951.15247	-903.48944	288.73019	954.19562	-1089.24023	303.86246	967.51831	-921.54614	368.88858	605.76117	-1172.00806	364.68268	442.54865	-1154.89502	155.50717	309.0936	-1143.13281	9.69115	220.35309	-1105.33472	-15.06719	250.81154	-1058.31616	28.57762	72.91673	-1092.73792	498.11148	632.17938	-846.42065	546.86218	519.69196	-881.36554	539.5564	253.00916	-875.66541	526.7619	68.58742	-917.65015	483.534	45.06211	-958.51343	677.50549	33.69143	-924.68915	312.02158	1667.61853	-989.94855	NaN	NaN	NaN	NaN	NaN	NaN	NaN	NaN	NaN
101	1	433.80008	1645.55823	-1040.15723	423.41998	1621.82471	-910.56128	306.49103	1582.15405	-1058.83801	296.729	1563.75354	-931.17987	311.06604	1423.50549	-1011.08527	283.15897	1094.26563	-1012.63159	422.42984	1347.73877	-1007.46045	464.8623	1173.32703	-1021	238.18623	1249.03687	-942.2384	373.47198	1382.92517	-1169.53223	395.48132	1185.86182	-1248.01294	410.54626	1075.75452	-1266.28931	514.44202	970.57806	-1282.5	631.4176	929.68811	-1231.72253	593.8006	881.9715	-1268.09827	679.93793	858.43799	-1268.021	369.92352	1372.02991	-847.04797	307.34805	1180.64929	-763.79413	297.78015	1058.2843	-751.06342	290.42795	938.13287	-731.96674	319.43472	787.98071	-760.60217	268.11719	802.34808	-719.90192	286.50125	719.8913	-717.0528	457.46893	932.32654	-1123.07446	472.19836	953.30133	-902.56201	302.05496	957.00183	-1088.69641	317.05942	970.21472	-920.90143	389.71478	607.72546	-1170.31738	390.29132	444.67352	-1152.63074	180.6749	312.88007	-1142.33191	34.36351	226.56952	-1104.60229	6.97233	254.72006	-1057.69299	59.61098	79.73794	-1095.15186	507.68643	633.12347	-846.94403	554.37842	519.60614	-881.72858	541.3595	253.27834	-876.02991	526.6886	68.72948	-917.68811	483.27109	45.02014	-958.5321	677.23834	33.73737	-924.87073	326.00415	1670.50452	-988.35144	458.26178	1548.06079	-1001.67773	NaN	NaN	NaN	NaN	NaN	NaN
